<?xml version="1.0" encoding="UTF-8"?>
<svg version="1.1" xmlns="http://www.w3.org/2000/svg" width="390" height="390">
<path d="M0 0 C5.10912062 1.60249171 9.66261613 2.57976524 15 2.8125 C15.94552734 2.89902832 15.94552734 2.89902832 16.91015625 2.98730469 C27.07540593 3.89590459 34.17980474 3.52346042 42.32104492 -3.07373047 C45.39460461 -5.51321571 46.7702588 -6.18964266 50.76953125 -6.15234375 C54 -5.1875 54 -5.1875 56 -2.1875 C56.46697979 1.93748816 56.3024235 4.23091635 54.375 7.9375 C48.86804348 14.60381579 42.57927874 18.50540767 34 19.8125 C31.14444919 19.95131903 28.29591148 19.95222143 25.4375 19.9375 C24.68275391 19.94136719 23.92800781 19.94523437 23.15039062 19.94921875 C19.59675207 19.94295683 16.41753192 19.77045536 13 18.8125 C23.5736596 40.86200858 41.34709379 54.84953719 60.67626953 69.09228516 C65.84567397 72.9191 70.92153708 76.8661785 76 80.8125 C76.55316895 81.23950195 77.10633789 81.66650391 77.67626953 82.10644531 C84.93738355 87.71330948 92.02643567 93.46982949 98.96289062 99.47436523 C102.41008928 102.45777832 105.89293252 105.38183667 109.4375 108.25 C115.76945047 113.39528919 121.90711528 118.7576771 128.05615234 124.11865234 C131.22042687 126.87596667 134.39109184 129.62589639 137.5625 132.375 C138.18205566 132.91205566 138.80161133 133.44911133 139.43994141 134.00244141 C148.08358725 141.48968623 156.76438166 148.93275141 165.5 156.3125 C175.02853471 164.36470091 184.54184774 172.42413618 193.78125 180.80859375 C195.79308393 182.62561982 197.82660434 184.41194392 199.875 186.1875 C208.23617924 193.49727347 216.31983968 201.03833321 224.1875 208.875 C225.17762085 209.85823242 225.17762085 209.85823242 226.18774414 210.86132812 C226.79996826 211.47556641 227.41219238 212.08980469 228.04296875 212.72265625 C228.58977295 213.27058838 229.13657715 213.81852051 229.69995117 214.38305664 C232.62215287 217.59610658 232.15219525 220.62713056 232 224.8125 C231 225.8125 231 225.8125 227.44018555 225.89770508 C225.83895259 225.88249037 224.2377795 225.86001254 222.63671875 225.83203125 C221.77552933 225.81790695 220.9143399 225.80378265 220.02705383 225.78923035 C218.18667986 225.75598885 216.34636031 225.71961517 214.50610352 225.68041992 C211.76509813 225.62652575 209.02457009 225.59699569 206.28320312 225.56835938 C189.61118137 225.28621471 173.88843536 222.32684471 157.9375 217.5 C156.93928223 217.20295166 155.94106445 216.90590332 154.91259766 216.59985352 C144.04628471 213.30983794 133.26479165 209.63719952 122.890625 205.00390625 C122.25141113 204.719104 121.61219727 204.43430176 120.95361328 204.14086914 C119.2554244 203.37158277 117.56856757 202.57741384 115.8828125 201.78125 C109.57911342 199.66293378 102.14293832 203.58061956 96.0625 205.5625 C94.99064453 205.89765625 93.91878906 206.2328125 92.81445312 206.578125 C83.98132209 209.46598456 79.28747995 212.88287388 73.4375 220.1875 C72.71433594 221.08210937 71.99117187 221.97671875 71.24609375 222.8984375 C69.56961569 225.07348556 67.95016343 227.25815742 66.35961914 229.49462891 C65.91582413 230.11802155 65.47202911 230.74141418 65.01478577 231.38369751 C64.67990646 231.85520233 64.34502716 232.32670715 64 232.8125 C64.6403569 232.82867371 65.28071381 232.84484741 65.94047546 232.86151123 C72.60850139 233.03369802 79.27534452 233.23270416 85.94213867 233.44726562 C88.42989225 233.5238069 90.91786572 233.59351966 93.40600586 233.65625 C96.98370928 233.74763815 100.5599015 233.86360437 104.13671875 233.984375 C105.24834885 234.00747742 106.35997894 234.03057983 107.5052948 234.05438232 C115.18486439 234.34762813 115.18486439 234.34762813 119.21411133 236.64550781 C121 238.8125 121 238.8125 121.4375 242.3125 C121.04254586 245.4721331 120.48158299 247.09923959 119 249.8125 C102.78838718 249.85922787 86.57679623 249.8944927 70.36513233 249.91612434 C62.83771831 249.92643541 55.31034614 249.94049249 47.78295898 249.96337891 C41.22182633 249.98331799 34.66072398 249.99621768 28.09956187 250.00067699 C24.62571662 250.00328349 21.15195809 250.00940636 17.67814064 250.02396011 C13.79948938 250.04007802 9.92092283 250.04047935 6.04223633 250.03955078 C4.89137039 250.04674133 3.74050446 250.05393188 2.55476379 250.06134033 C0.96679993 250.05721634 0.96679993 250.05721634 -0.65324402 250.05300903 C-2.02902005 250.05577441 -2.02902005 250.05577441 -3.43258953 250.05859566 C-7.41921252 249.6764633 -10.16293695 248.64956305 -13 245.8125 C-13.56537102 238.68882509 -13.56537102 238.68882509 -11.75 235.875 C-8.53349268 233.92212055 -5.56651712 233.70963471 -1.875 233.953125 C8.01992858 234.42481854 8.01992858 234.42481854 16.63671875 230.2421875 C19.80503437 227.04791011 22.42014514 223.48635033 25 219.8125 C25.83061776 218.70660638 26.6651065 217.60360691 27.50390625 216.50390625 C29.39495366 213.97483589 31.22214983 211.42175657 33 208.8125 C30.52814883 207.16459922 28.88077861 206.31912902 26.1484375 205.40234375 C-4.94879227 194.65553122 -30.21756801 176.54425862 -45.3125 146.6875 C-46.57678365 144.07794765 -47.79650798 141.45053723 -49 138.8125 C-49.4228125 137.91402344 -49.845625 137.01554688 -50.28125 136.08984375 C-56.59539736 120.99807488 -56.41871501 103.12389722 -57.26611328 87.00097656 C-57.6578761 66.51672568 -57.6578761 66.51672568 -67.3125 49.375 C-71.41387422 46.22076517 -75.51789293 45.20873998 -80.59375 44.3984375 C-81.4909375 44.24632812 -82.388125 44.09421875 -83.3125 43.9375 C-84.57513672 43.75574219 -84.57513672 43.75574219 -85.86328125 43.5703125 C-88 42.8125 -88 42.8125 -89.4375 41.03515625 C-90 38.8125 -90 38.8125 -89.19921875 36.55078125 C-85.7388507 30.99809764 -81.96900925 26.48095177 -77.234375 21.96875 C-73.38984851 18.25864751 -69.87657247 14.21264655 -66.5859375 10.00390625 C-49.22927883 -11.76464052 -23.40068686 -7.44567309 0 0 Z M-56.0703125 19.8046875 C-60.58614601 24.57308249 -60.58614601 24.57308249 -62 30.8125 C-60.3527484 33.25991384 -60.3527484 33.25991384 -57.9375 35.5 C-42.96818459 51.23756954 -42.68169581 69.85391449 -41.57421875 90.50390625 C-40.47157532 110.97662459 -38.27619361 127.76969808 -28 145.8125 C-27.12408203 147.36904297 -27.12408203 147.36904297 -26.23046875 148.95703125 C-12.22447935 171.75109243 10.44566901 185.29660745 35.92016602 191.66455078 C59.38303863 197.22954615 83.95986317 196.22746126 105.5 184.4375 C109.68103316 182.49630603 110.60885072 182.63621029 115 183.8125 C118.58949243 185.3850468 122.06684608 187.16809133 125.5625 188.9375 C148.10013009 199.98140285 176.5645244 210.26997258 202 209.8125 C195.04426666 201.11783332 186.51556295 193.9693172 178.1328125 186.69140625 C175.35201525 184.24165629 172.61164805 181.74875124 169.875 179.25 C169.35123779 178.77731689 168.82747559 178.30463379 168.2878418 177.81762695 C165.57519427 175.34934653 163.14048335 172.82730012 160.8125 170 C158.33502114 167.57039807 158.33502114 167.57039807 156.04882812 167.95068359 C155.32115234 168.13969238 154.59347656 168.32870117 153.84375 168.5234375 C153.04364502 168.72638428 152.24354004 168.92933105 151.41918945 169.13842773 C148.54627558 169.93892377 145.68102965 170.75802614 142.82421875 171.61425781 C107.3681186 182.16358194 66.57128049 183.39718138 33.1875 166 C12.38134793 154.6259702 -2.63005293 138.51909805 -10 115.8125 C-10.24621094 115.06871094 -10.49242187 114.32492188 -10.74609375 113.55859375 C-14.69341135 99.21213598 -12.18851789 81.6801357 -5 68.8125 C-4.34 68.1525 -3.68 67.4925 -3 66.8125 C2.45454545 67.26704545 2.45454545 67.26704545 5 69.8125 C5.79173742 74.58348913 5.09258506 78.92391769 3.5 83.4375 C-0.66809867 96.21966925 2.13522755 109.85805041 7.5 121.8125 C11.22111169 128.87520701 16.37866323 134.23990314 22 139.8125 C22.62390625 140.46992188 23.2478125 141.12734375 23.890625 141.8046875 C41.13136222 158.65711983 67.65902105 163.15970676 90.6394043 163.04711914 C107.50249149 162.79515848 123.59602524 160.67446434 140 156.8125 C140.23135193 154.7504297 140.23135193 154.7504297 138.7421875 153.5078125 C138.12601563 152.98960937 137.50984375 152.47140625 136.875 151.9375 C136.1428125 151.31488281 135.410625 150.69226563 134.65625 150.05078125 C133.7796875 149.31214844 132.903125 148.57351562 132 147.8125 C130.37833058 146.42464545 128.75973766 145.03324994 127.14111328 143.6418457 C125.33336544 142.08924171 123.52236506 140.54049599 121.7109375 138.9921875 C119.2917862 136.92279302 116.88061267 134.84472693 114.4765625 132.7578125 C108.25681149 127.36934086 101.9567751 122.13723207 95.4543457 117.09301758 C90.78884774 113.46415368 86.23244114 109.7157996 81.6875 105.9375 C74.0151148 99.57533012 66.14503234 93.51055799 58.203125 87.49072266 C51.42213029 82.32532399 44.71374262 77.06480563 38 71.8125 C37.00871094 71.0390625 36.01742187 70.265625 34.99609375 69.46875 C32.64000388 67.61042559 30.31220253 65.72506258 28 63.8125 C27.19691406 63.15636719 26.39382812 62.50023437 25.56640625 61.82421875 C14.57539412 52.44499311 6.714246 40.86838788 -0.67724609 28.56103516 C-5.86857572 20.02583061 -11.02078148 12.62715138 -21 9.8125 C-34.10141059 6.9365806 -46.48577803 10.58183358 -56.0703125 19.8046875 Z M44.625 216.3125 C40.48428497 221.2776527 36.73307328 226.53771594 33 231.8125 C35.74265117 234.08701236 35.74265117 234.08701236 38.45703125 233.62109375 C42.89488941 232.20997756 45.69349218 228.98720595 49 225.8125 C50.28583984 224.58660156 50.28583984 224.58660156 51.59765625 223.3359375 C55.9458772 219.09658217 59.94868953 215.08294536 63 209.8125 C55.08542788 209.33762567 50.148776 210.24132277 44.625 216.3125 Z " fill="#000000" transform="translate(133,59.1875)"/>
<path d="M0 0 C3.69269451 0.96644739 5.42728657 2.69972764 8 5.5234375 C9.54975972 8.98760628 9.01596968 10.46895272 7.9375 14.1484375 C5.66932371 18.09945427 4.31464964 19.16982193 0 20.5234375 C-3.96239846 20.5234375 -5.64791407 19.77602088 -8.875 17.4609375 C-11.12053508 14.35681548 -11.75378122 12.37192971 -11.4765625 8.52734375 C-10.07140082 2.61875406 -6.29736118 -0.50092646 0 0 Z " fill="#000000" transform="translate(103,79.4765625)"/>
<path d="M0 0 C0.99 0 1.98 0 3 0 C3 1.32 3 2.64 3 4 C1.68 4 0.36 4 -1 4 C-0.67 2.68 -0.34 1.36 0 0 Z " fill="#000000" transform="translate(303,366)"/>
</svg>
