<?xml version="1.0" standalone="no"?>
<!DOCTYPE svg PUBLIC "-//W3C//DTD SVG 20010904//EN"
 "http://www.w3.org/TR/2001/REC-SVG-20010904/DTD/svg10.dtd">
<svg version="1.0" xmlns="http://www.w3.org/2000/svg"
 width="500.000000pt" height="500.000000pt" viewBox="0 0 500.000000 500.000000"
 preserveAspectRatio="xMidYMid meet">

<g transform="translate(0.000000,500.000000) scale(0.100000,-0.100000)"
fill="#000000" stroke="none">
<path d="M1783 3751 c-73 -27 -102 -50 -185 -144 -39 -45 -75 -85 -80 -88 -18
-12 -58 -74 -58 -90 0 -14 13 -19 66 -25 57 -6 73 -12 105 -41 54 -49 66 -97
78 -323 12 -224 24 -281 85 -405 102 -207 283 -360 509 -430 48 -15 87 -30 87
-34 0 -11 -38 -60 -104 -134 l-60 -67 -65 -1 c-106 -2 -125 -9 -129 -45 -2
-20 3 -36 16 -47 17 -16 58 -17 493 -15 l474 3 9 28 c8 23 6 31 -12 50 -22 21
-29 22 -222 22 -110 0 -200 4 -200 8 0 13 38 65 97 132 48 55 59 62 120 79 38
9 88 26 112 37 l43 19 87 -39 c110 -49 277 -103 411 -132 81 -18 138 -23 250
-23 l145 -1 3 26 c2 20 -13 41 -80 106 -95 92 -240 222 -378 338 -52 44 -176
149 -275 235 -272 236 -396 337 -555 454 -176 129 -269 219 -321 308 -43 73
-48 92 -21 84 72 -20 173 -12 234 20 74 39 105 122 53 146 -21 10 -31 6 -81
-28 l-56 -39 -102 1 c-88 0 -114 5 -196 34 -121 42 -221 49 -297 21z m221
-105 c46 -19 67 -44 146 -171 79 -127 137 -188 270 -288 245 -184 550 -432
720 -585 l55 -49 -95 -22 c-119 -27 -344 -38 -448 -22 -292 46 -499 230 -518
461 -5 62 -2 86 16 137 12 35 19 72 15 83 -8 24 -38 42 -59 34 -41 -16 -83
-181 -70 -283 9 -75 47 -175 91 -239 82 -120 242 -231 406 -281 73 -22 234
-40 307 -34 192 15 321 40 424 79 l39 15 76 -73 c42 -40 122 -112 179 -161 97
-83 123 -114 85 -103 -10 3 -40 8 -68 11 -170 23 -405 93 -523 157 l-94 50
-71 -36 c-166 -81 -360 -86 -572 -16 -121 40 -205 91 -291 175 -83 82 -146
184 -181 292 -21 67 -26 107 -33 276 -11 248 -26 302 -106 386 -30 30 -54 60
-54 67 0 21 70 104 103 121 85 44 175 51 251 19z m578 -1523 c-17 -21 -57 -64
-90 -96 -53 -53 -63 -58 -96 -55 l-37 3 41 60 c23 33 56 75 73 93 27 28 37 32
85 32 l54 0 -30 -37z"/>
<path d="M1841 3544 c-27 -34 -27 -64 -1 -92 29 -31 73 -29 99 4 28 36 26 68
-5 93 -36 28 -68 26 -93 -5z"/>
<path d="M3400 1410 c0 -5 5 -10 10 -10 6 0 10 5 10 10 0 6 -4 10 -10 10 -5 0
-10 -4 -10 -10z"/>
</g>
</svg>
