<?xml version="1.0" encoding="UTF-8" standalone="no"?>
<!-- Created with Inkscape (http://www.inkscape.org/) -->

<svg
   version="1.1"
   id="svg2"
   width="436.81332"
   height="600.49335"
   viewBox="0 0 436.81332 600.49335"
   sodipodi:docname="palantir-logo.eps"
   xmlns:inkscape="http://www.inkscape.org/namespaces/inkscape"
   xmlns:sodipodi="http://sodipodi.sourceforge.net/DTD/sodipodi-0.dtd"
   xmlns="http://www.w3.org/2000/svg"
   xmlns:svg="http://www.w3.org/2000/svg">
  <defs
     id="defs6" />
  <sodipodi:namedview
     id="namedview4"
     pagecolor="#ffffff"
     bordercolor="#000000"
     borderopacity="0.25"
     inkscape:showpageshadow="2"
     inkscape:pageopacity="0.0"
     inkscape:pagecheckerboard="0"
     inkscape:deskcolor="#d1d1d1" />
  <g
     id="g8"
     inkscape:groupmode="layer"
     inkscape:label="ink_ext_XXXXXX"
     transform="matrix(1.3333333,0,0,-1.3333333,0,600.49333)">
    <g
       id="g10"
       transform="scale(0.1)">
      <path
         d="m 914.047,67.5 c 6.101,0 12.609,-2.6797 19.531,-8.0586 8.621,-6.75 14.524,-10.1211 17.699,-10.1211 4.715,0 7.078,2.4414 7.078,7.3203 0,2.6797 -1.382,4.961 -4.148,6.8399 -1.465,0.9687 -9.687,4.1015 -24.656,9.3906 -24.5,8.6289 -36.746,24.5781 -36.746,47.8479 0,17.582 6.468,31.461 19.41,41.633 11.308,8.867 25.308,13.308 41.992,13.308 14.402,0 26.934,-3.441 37.598,-10.32 10.655,-6.879 15.995,-15.731 15.995,-26.551 0,-6.508 -2.02,-11.937 -6.05,-16.301 -4.023,-4.347 -9.258,-6.527 -15.684,-6.527 -6.757,0 -14.242,3.219 -22.461,9.648 -5.125,3.981 -8.992,5.973 -11.593,5.973 -4.481,0 -6.715,-2.184 -6.715,-6.582 0,-4.16 5.531,-7.941 16.601,-11.359 15.297,-4.801 27.137,-10.661 35.524,-17.5707 11.148,-9.2812 16.718,-22.3008 16.718,-39.0703 0,-18.2305 -6.27,-32.4687 -18.796,-42.7187 C 983.703,4.76172 968.566,0 949.934,0 c -18.637,0 -34.055,4.96094 -46.262,14.8789 -9.77,7.9024 -14.652,17.1406 -14.652,27.7227 0,7.0781 2.398,12.9804 7.203,17.6875 4.8,4.7304 10.742,7.1328 17.824,7.2109"
         style="fill:#3e3d40;fill-opacity:1;fill-rule:nonzero;stroke:none"
         id="path12" />
      <path
         d="m 1087.63,56.0313 h 24.97 c 10.31,0 17.99,-2.1211 23.02,-6.3516 5.93,-5.0508 8.89,-11.5508 8.89,-19.5313 0,-8.1367 -2.97,-14.7265 -8.91,-19.7773 -4.64,-3.90235 -12.25,-5.85938 -22.82,-5.85938 h -42.85 c -10.09,0 -17.01,0.76953 -20.75,2.32812 -7.33,3.01172 -12.17,7.92966 -14.53,14.76176 -1.46,4.3984 -2.2,11.5976 -2.2,21.5976 v 90.5898 c 0,7.563 0.25,12.652 0.74,15.25 0.89,5.301 3.05,9.77 6.47,13.43 3.9,4.152 8.86,6.801 14.89,7.941 2.85,0.488 8.62,0.719 17.33,0.719 h 32.84 c 8.95,0 14.16,-0.07 15.62,-0.231 5.86,-0.578 10.66,-2.289 14.41,-5.136 6.67,-5.043 10.01,-11.633 10.01,-19.762 0,-8.789 -2.93,-15.508 -8.77,-20.148 -5.2,-4.153 -12.31,-6.223 -21.32,-6.223 h -27.04 V 108.27 h 21.55 c 6.33,0 11.56,-1.668 15.7,-5.008 4.38,-3.5706 6.57,-8.4925 6.57,-14.762 0,-13.2578 -8.07,-19.8984 -24.22,-19.8984 h -19.6 V 56.0313"
         style="fill:#3e3d40;fill-opacity:1;fill-rule:nonzero;stroke:none"
         id="path14" />
      <path
         d="m 1216.05,56.0313 h 24.97 c 10.31,0 17.99,-2.1211 23.02,-6.3516 5.93,-5.0508 8.89,-11.5508 8.89,-19.5313 0,-8.1367 -2.97,-14.7265 -8.91,-19.7773 -4.64,-3.90235 -12.25,-5.85938 -22.83,-5.85938 h -42.84 c -10.1,0 -17.01,0.76953 -20.75,2.32812 -7.33,3.01172 -12.17,7.92966 -14.53,14.76176 -1.47,4.3984 -2.2,11.5976 -2.2,21.5976 v 90.5898 c 0,7.563 0.25,12.652 0.73,15.25 0.9,5.301 3.06,9.77 6.47,13.43 3.91,4.152 8.87,6.801 14.9,7.941 2.84,0.488 8.62,0.719 17.33,0.719 h 32.84 c 8.95,0 14.16,-0.07 15.62,-0.231 5.86,-0.578 10.66,-2.289 14.41,-5.136 6.67,-5.043 10.01,-11.633 10.01,-19.762 0,-8.789 -2.93,-15.508 -8.77,-20.148 -5.2,-4.153 -12.31,-6.223 -21.32,-6.223 h -27.04 V 108.27 h 21.55 c 6.32,0 11.56,-1.668 15.7,-5.008 4.38,-3.5706 6.57,-8.4925 6.57,-14.762 0,-13.2578 -8.08,-19.8984 -24.22,-19.8984 h -19.6 V 56.0313"
         style="fill:#3e3d40;fill-opacity:1;fill-rule:nonzero;stroke:none"
         id="path16" />
      <path
         d="m 1344.22,114.75 31.01,44.922 c 5.86,8.457 13.43,12.687 22.7,12.687 7.57,0 14.12,-2.687 19.66,-8.058 5.53,-5.371 8.3,-11.801 8.3,-19.281 0,-5.54 -1.47,-10.418 -4.4,-14.649 l -27.95,-40.6522 34.18,-43.3282 c 3.42,-4.3203 5.12,-9.3711 5.12,-15.1406 0,-7.6484 -2.68,-14.2305 -8.05,-19.7187 -5.37,-5.49224 -11.89,-8.24224 -19.53,-8.24224 -8.39,0 -14.77,2.73047 -19.17,8.17974 l -41.87,52.2421 V 34.8984 c 0,-8.207 -1.42,-14.5976 -4.27,-19.1562 -5.21,-8.30079 -12.78,-12.45314 -22.71,-12.45314 -9.03,0 -16.03,3.0625 -20.99,9.15234 -4.64,5.6289 -6.96,13.0703 -6.96,22.3477 V 141.602 c 0,8.789 2.36,16.027 7.08,21.718 4.96,6.032 11.8,9.039 20.51,9.039 8.3,0 15.21,-3.007 20.75,-9.039 3.09,-3.332 5.04,-6.711 5.86,-10.129 0.49,-2.109 0.73,-6.062 0.73,-11.839 V 114.75"
         style="fill:#3e3d40;fill-opacity:1;fill-rule:nonzero;stroke:none"
         id="path18" />
      <path
         d="m 1500.72,56.0313 h 26.98 c 8.3,0 14.84,-1.711 19.65,-5.1329 7,-5.0468 10.49,-11.8789 10.49,-20.5078 0,-7.8086 -2.85,-14.3203 -8.54,-19.5312 -4.56,-4.23049 -11.35,-6.34768 -20.39,-6.34768 h -52.36 c -10.26,0 -18.03,2.88672 -23.32,8.67968 -3.83,4.2188 -6.19,9.6289 -7.08,16.2305 -0.24,2.1094 -0.37,8.1797 -0.37,18.1797 v 94.0004 c 0,8.867 2.32,16.117 6.96,21.718 4.96,6.032 11.76,9.039 20.39,9.039 9.11,0 16.23,-3.339 21.37,-10.007 4.14,-5.383 6.22,-14.532 6.22,-27.473 V 56.0313"
         style="fill:#4cb938;fill-opacity:1;fill-rule:nonzero;stroke:none"
         id="path20" />
      <path
         d="m 1644.64,175.66 c 16.93,0.16 32.46,-4.262 46.62,-13.25 14.16,-8.988 24.91,-20.859 32.23,-35.578 6.11,-12.211 9.16,-25.152 9.16,-38.8203 0,-15.3828 -3.79,-29.7929 -11.35,-43.2109 -7.58,-13.4297 -17.91,-24.1289 -31.01,-32.1016 C 1676.38,4.23047 1660.99,0 1644.15,0 c -16.36,0 -31.64,4.42188 -45.84,13.2422 -14.21,8.8281 -24.92,20.6094 -32.16,35.3398 -6.11,12.3672 -9.16,25.9571 -9.16,40.7774 0,12.1996 2.64,23.9996 7.93,35.3906 7.25,15.711 18.07,28.121 32.48,37.23 14.08,8.961 29.82,13.512 47.24,13.68"
         style="fill:#4cb938;fill-opacity:1;fill-rule:nonzero;stroke:none"
         id="path22" />
      <path
         d="m 1849.48,61.5195 h -7.93 c -10.18,0 -17.09,3.2618 -20.77,9.7696 -1.78,3.0898 -2.67,6.5 -2.67,10.25 0,6.6718 2.6,11.8828 7.81,15.6328 3.91,2.8401 10.17,4.2691 18.79,4.2691 13.76,0 21.74,-0.082 23.93,-0.25 10.58,-0.73 17.91,-2.8121 21.97,-6.2301 6.19,-5.1992 9.28,-14.0312 9.28,-26.4804 0,-9.5196 -0.2,-17.8203 -0.61,-24.8985 -0.57,-10.2617 -6.95,-19.5703 -19.16,-27.9531 C 1864.98,5.21094 1848.54,0 1830.8,0 c -21.32,0 -40.12,6.75 -56.4,20.2617 -9.92,8.2969 -17.7,18.4102 -23.31,30.3399 -5.62,11.9101 -8.43,24.3398 -8.43,37.289 0,16.7574 4.39,32.2384 13.18,46.4494 8.79,14.199 20.68,24.922 35.65,32.172 12.61,6.09 25.64,9.148 39.06,9.148 16.93,0 32.56,-4.531 46.87,-13.551 11.49,-7.25 17.22,-15.918 17.22,-26 0,-7.648 -2.72,-14.179 -8.17,-19.589 -5.46,-5.418 -12.01,-8.122 -19.66,-8.122 -3.17,0 -9.77,2.481 -19.78,7.442 -6.02,3.012 -11.79,4.512 -17.33,4.512 -8.62,0 -15.99,-3.231 -22.1,-9.692 -6.09,-6.48 -9.15,-14.0702 -9.15,-22.7694 0,-9.039 3.12,-16.7109 9.34,-23.0195 6.23,-6.3008 13.85,-9.4609 22.89,-9.4609 5.78,0 12.04,2.039 18.8,6.1093"
         style="fill:#4cb938;fill-opacity:1;fill-rule:nonzero;stroke:none"
         id="path24" />
      <path
         d="m 1997.42,175.66 c 16.93,0.16 32.47,-4.262 46.63,-13.25 14.16,-8.988 24.9,-20.859 32.22,-35.578 6.12,-12.211 9.16,-25.152 9.16,-38.8203 0,-15.3828 -3.79,-29.7929 -11.35,-43.2109 -7.57,-13.4297 -17.91,-24.1289 -31.01,-32.1016 C 2029.16,4.23047 2013.77,0 1996.94,0 c -16.37,0 -31.64,4.42188 -45.84,13.2422 -14.21,8.8281 -24.93,20.6094 -32.17,35.3398 -6.1,12.3672 -9.16,25.9571 -9.16,40.7774 0,12.1996 2.65,23.9996 7.94,35.3906 7.24,15.711 18.06,28.121 32.47,37.23 14.08,8.961 29.82,13.512 47.24,13.68"
         style="fill:#4cb938;fill-opacity:1;fill-rule:nonzero;stroke:none"
         id="path26" />
      <path
         d="m 2099.61,16.7617 c 0,8.2774 5.76,14.2188 13.69,14.2188 8.1,0 13.69,-5.7617 13.69,-14.2188 0,-8.11326 -5.41,-14.23045 -13.69,-14.23045 -8.1,0 -13.69,6.11719 -13.69,14.23045"
         style="fill:#7b7e7e;fill-opacity:1;fill-rule:nonzero;stroke:none"
         id="path28" />
      <path
         d="m 2144.8,66.1016 c 0,10.0703 -0.19,18.539 -0.72,26.0976 h 19.44 l 1.08,-13.1484 h 0.54 c 3.79,6.8476 13.33,15.1289 27.91,15.1289 15.3,0 31.15,-9.8984 31.15,-37.6406 V 4.51172 h -22.15 V 54.0195 c 0,12.6094 -4.67,22.1524 -16.74,22.1524 -8.82,0 -14.95,-6.3008 -17.29,-12.961 -0.71,-1.9804 -0.9,-4.6796 -0.9,-7.1992 V 4.51172 H 2144.8 V 66.1016"
         style="fill:#7b7e7e;fill-opacity:1;fill-rule:nonzero;stroke:none"
         id="path30" />
      <path
         d="m 2301.96,57.6289 c 0.17,8.1016 -3.43,21.4219 -18.2,21.4219 -13.68,0 -19.44,-12.4219 -20.34,-21.4219 z m -38.54,-15.4883 c 0.54,-15.8398 12.96,-22.6914 27.01,-22.6914 10.26,0 17.64,1.4492 24.31,3.9727 l 3.23,-15.30081 c -7.56,-3.07031 -18,-5.40234 -30.6,-5.40234 -28.45,0 -45.2,17.46095 -45.2,44.28125 0,24.3086 14.77,47.1797 42.85,47.1797 28.46,0 37.81,-23.4102 37.81,-42.668 0,-4.1523 -0.36,-7.3906 -0.71,-9.3711 h -58.7"
         style="fill:#7b7e7e;fill-opacity:1;fill-rule:nonzero;stroke:none"
         id="path32" />
      <path
         d="M 2366.03,117.23 V 92.1992 h 21.06 V 75.6406 h -21.06 V 36.9297 c 0,-10.6289 2.88,-16.2188 11.34,-16.2188 3.78,0 6.66,0.5508 8.64,1.0899 l 0.36,-16.92971 c -3.24,-1.26171 -9,-2.15234 -16.03,-2.15234 -8.1,0 -14.94,2.69141 -19.08,7.19141 -4.68,5.03904 -6.84,12.96874 -6.84,24.50004 v 41.2304 h -12.61 v 16.5586 h 12.61 V 112 l 21.61,5.23"
         style="fill:#7b7e7e;fill-opacity:1;fill-rule:nonzero;stroke:none"
         id="path34" />
      <path
         d="m 1625.64,4422.14 h 79.18 v -611.75 h -79.18 v 611.75"
         style="fill:#211c1d;fill-opacity:1;fill-rule:nonzero;stroke:none"
         id="path36" />
      <path
         d="m 2890.25,4235.77 h 79.36 v -425.38 h -79.36 z m -8.43,186.37 h 95.28 v -88.94 h -95.28 v 88.94"
         style="fill:#211c1d;fill-opacity:1;fill-rule:nonzero;stroke:none"
         id="path38" />
      <path
         d="m 1990.95,4019.66 c -32.03,0 -152.54,0 -152.54,-86.43 0,-27.1 16.83,-73.69 87.66,-73.69 40.51,0 70.83,16.05 90.23,45.73 17.65,28.78 18.46,52.55 20.21,111.86 -14.26,1.71 -26.12,2.53 -45.56,2.53 m 54.86,-209.29 c -5.87,21.11 -7.58,41.5 -7.58,63.55 -37.95,-70.36 -95.33,-77.13 -130.62,-77.13 -97.04,0 -149.37,55.08 -149.37,125.4 0,33.95 11.86,88.13 74.26,124.58 45.52,25.39 112.93,27.91 146.67,27.91 20.17,0 32.93,-0.81 57.34,-2.52 0,52.54 0,75.5 -15.16,94.09 -16.01,21.23 -50.61,27.96 -73.31,27.96 -80.13,0 -84.28,-55.07 -85.14,-72.03 h -79.31 c 2.53,21.97 5.05,51.64 29.51,80.51 32.03,35.59 91.98,45.74 136.57,45.74 61.62,0 127.27,-19.4 150.05,-62.7 13.49,-25.44 14.35,-45.78 14.35,-65.22 l -3.34,-203.38 c 0,-6.72 0.81,-63.59 6.72,-106.76 h -71.64"
         style="fill:#211c1d;fill-opacity:1;fill-rule:nonzero;stroke:none"
         id="path40" />
      <path
         d="m 2185.08,4186.56 -0.82,49.21 h 79.23 l 0.81,-68.7 c 9.3,17.82 39.62,77.13 135.72,77.13 37.85,0 153.52,-14.43 153.52,-144.88 v -288.94 h -81.02 v 270.27 c 0,28.01 -3.34,53.4 -22.74,72.93 -20.3,19.49 -48.05,28.74 -75.03,28.74 -57.34,0 -110.45,-41.5 -110.45,-127.02 v -244.92 h -79.22 v 376.18"
         style="fill:#211c1d;fill-opacity:1;fill-rule:nonzero;stroke:none"
         id="path42" />
      <path
         d="m 2578.28,4235.77 h 75.03 v 90.66 l 78.37,25.4 v -116.06 h 94.38 v -58.46 h -94.38 v -253.43 c 0,-21.11 0,-56.79 56.48,-56.79 16.06,0 31.18,2.57 37.9,4.29 v -61.89 c -14.3,-2.52 -37.04,-5.01 -65.78,-5.01 -72.46,0 -106.97,21.12 -106.97,90.57 v 282.26 h -75.03 v 58.46"
         style="fill:#211c1d;fill-opacity:1;fill-rule:nonzero;stroke:none"
         id="path44" />
      <path
         d="m 3042.59,4149.32 c 0,28.82 -1.71,58.49 -4.28,86.46 h 80.12 l 1.72,-82.23 c 15.11,59.27 65.73,78.8 101.15,83.9 23.64,3.38 41.37,2.57 54.81,1.62 v -77.89 c -4.19,1.62 -9.25,2.57 -15.2,3.34 -5.91,0.86 -13.4,0.86 -22.74,0.86 -93.57,0 -115.58,-55.85 -115.58,-128.74 V 3810.4 h -80 v 338.92"
         style="fill:#211c1d;fill-opacity:1;fill-rule:nonzero;stroke:none"
         id="path46" />
      <path
         d="m 309.629,3998.42 c -113.445,0 -205.391,92.46 -205.391,206.46 0,114 91.946,206.42 205.391,206.42 113.398,0 205.387,-92.42 205.387,-206.42 0,-114 -91.989,-206.46 -205.387,-206.46 m 0,505.29 c -164.063,0 -297.0782,-133.66 -297.0782,-298.57 0,-164.88 133.0152,-298.58 297.0782,-298.58 164.062,0 297.074,133.7 297.074,298.58 0,164.91 -133.012,298.57 -297.074,298.57"
         style="fill:#211c1d;fill-opacity:1;fill-rule:nonzero;stroke:none"
         id="path48" />
      <path
         d="M 575.137,3932.79 309.625,3817.55 44.0664,3932.79 0,3847.82 l 309.625,-132.63 309.621,132.63 -44.109,84.97"
         style="fill:#211c1d;fill-opacity:1;fill-rule:nonzero;stroke:none"
         id="path50" />
      <path
         d="m 883.57,4153.57 h 100.297 c 55.753,0 140.853,4.19 140.853,104.14 0,95.85 -79.27,95.85 -123.21,95.85 H 883.57 Z m -84.277,268.55 h 203.927 c 74.22,0 124.88,-4.24 166.21,-49.12 30.36,-31.3 44.62,-72.89 44.62,-118.58 0,-46.63 -15.12,-86.51 -47.96,-119.53 -32.12,-32.16 -74.18,-52.58 -183.895,-52.58 H 883.57 v -271.94 h -84.277 v 611.75"
         style="fill:#211c1d;fill-opacity:1;fill-rule:nonzero;stroke:none"
         id="path52" />
      <path
         d="m 1432.61,4019.66 c -32.07,0 -152.54,0 -152.54,-86.43 0,-27.1 16.79,-73.69 87.66,-73.69 40.43,0 70.79,16.05 90.28,45.73 17.68,28.78 18.45,52.55 20.17,111.86 -14.35,1.71 -26.17,2.53 -45.57,2.53 m 54.82,-209.29 c -5.91,21.11 -7.63,41.5 -7.63,63.55 -37.85,-70.36 -95.24,-77.13 -130.7,-77.13 -96.95,0 -149.07,55.08 -149.07,125.4 0,33.95 11.69,88.13 74.13,124.58 45.56,25.39 113.01,27.91 146.67,27.91 20.22,0 32.89,-0.81 57.35,-2.52 0,52.54 0,75.5 -15.12,94.09 -16.06,21.23 -50.62,27.96 -73.45,27.96 -80.08,0 -84.27,-55.07 -85.13,-72.03 h -79.18 c 2.44,21.97 5.01,51.64 29.42,80.51 32.16,35.59 91.9,45.74 136.61,45.74 61.54,0 127.32,-19.4 150.1,-62.7 13.57,-25.44 14.35,-45.78 14.35,-65.22 l -3.43,-203.38 c 0,-6.72 0.94,-63.59 6.77,-106.76 h -71.69"
         style="fill:#211c1d;fill-opacity:1;fill-rule:nonzero;stroke:none"
         id="path54" />
    </g>
  </g>
</svg>
